<svg width="91" height="91" viewBox="0 0 91 91" fill="none" xmlns="http://www.w3.org/2000/svg">
<path fill-rule="evenodd" clip-rule="evenodd" d="M25.2778 20.2222C25.2778 14.859 27.4083 9.71535 31.2007 5.92295C34.9931 2.13055 40.1367 0 45.5 0C50.8633 0 56.0069 2.13055 59.7993 5.92295C63.5917 9.71535 65.7222 14.859 65.7222 20.2222C65.7222 25.5855 63.5917 30.7291 59.7993 34.5215C56.0069 38.3139 50.8633 40.4444 45.5 40.4444C40.1367 40.4444 34.9931 38.3139 31.2007 34.5215C27.4083 30.7291 25.2778 25.5855 25.2778 20.2222ZM25.2778 50.5556C18.5737 50.5556 12.1442 53.2187 7.40369 57.9592C2.66319 62.6997 0 69.1292 0 75.8333C0 79.8558 1.59791 83.7135 4.44221 86.5578C7.28652 89.4021 11.1442 91 15.1667 91H75.8333C79.8558 91 83.7135 89.4021 86.5578 86.5578C89.4021 83.7135 91 79.8558 91 75.8333C91 69.1292 88.3368 62.6997 83.5963 57.9592C78.8558 53.2187 72.4263 50.5556 65.7222 50.5556H25.2778Z" fill="#A6A6A6"/>
</svg>
