<svg width="38" height="37" viewBox="0 0 38 37" fill="none" xmlns="http://www.w3.org/2000/svg">
<path opacity="0.16" d="M8.09196 2.41822L33.5611 14.4832C36.813 16.0228 36.813 20.6501 33.5611 22.1896L8.09196 34.2568C5.07464 35.6855 1.65857 33.2503 2.02747 29.9323L3.26425 18.8098C3.29907 18.4966 3.29907 18.1805 3.26425 17.8673L2.02747 6.74482C1.65857 3.4247 5.07464 0.987393 8.09196 2.41822Z" fill="#1D8ACE"/>
<path d="M3.31543 18.3364L2.02747 6.74269C1.65857 3.42471 5.07464 0.987395 8.09196 2.41822L33.5611 14.4832C36.813 16.0228 36.813 20.6501 33.5611 22.1896L8.09196 34.2568C5.07464 35.6855 1.65857 33.2503 2.02747 29.9323L3.31543 18.3364ZM3.31543 18.3364H18.2421" stroke="#1D8ACE" stroke-width="3" stroke-linecap="round" stroke-linejoin="round"/>
</svg>
