<svg width="29" height="32" viewBox="0 0 29 32" fill="none" xmlns="http://www.w3.org/2000/svg">
  <path opacity="0.5"
    d="M1.88822 1.8752C-1.92059e-07 3.7488 0 6.7664 0 12.8V19.2C0 25.2336 -1.92059e-07 28.2512 1.88822 30.1248C3.77644 31.9984 6.81339 32 12.8889 32H16.1111C22.1866 32 25.2252 32 27.1118 30.1248C28.9984 28.2496 29 25.2336 29 19.2V12.8C29 6.7664 29 3.7488 27.1118 1.8752C25.2236 0.00159988 22.1866 0 16.1111 0H12.8889C6.81339 0 3.77483 -1.90735e-07 1.88822 1.8752Z"
    fill="#ffffff" />
  <path
    d="M4.83331 16C4.83331 13.7376 4.83331 12.6064 5.5422 11.904C6.24787 11.2 7.38692 11.2 9.66665 11.2H19.3333C21.6114 11.2 22.7505 11.2 23.4578 11.904C24.1666 12.6064 24.1666 13.7376 24.1666 16V22.4C24.1666 24.6624 24.1666 25.7936 23.4578 26.496C22.7505 27.2 21.6114 27.2 19.3333 27.2H9.66665C7.38854 27.2 6.24948 27.2 5.5422 26.496C4.83331 25.7952 4.83331 24.664 4.83331 22.4V16ZM6.44442 5.2C6.12395 5.2 5.81661 5.32643 5.59 5.55147C5.3634 5.77652 5.23609 6.08174 5.23609 6.4C5.23609 6.71826 5.3634 7.02349 5.59 7.24853C5.81661 7.47357 6.12395 7.6 6.44442 7.6H14.5C14.8204 7.6 15.1278 7.47357 15.3544 7.24853C15.581 7.02349 15.7083 6.71826 15.7083 6.4C15.7083 6.08174 15.581 5.77652 15.3544 5.55147C15.1278 5.32643 14.8204 5.2 14.5 5.2H6.44442Z"
    fill="#ffffff" />
</svg>