<svg width="170" height="40" viewBox="0 0 170 40" fill="none" xmlns="http://www.w3.org/2000/svg">
<path d="M20.4507 5C13.912 5.06279 8.36094 8.26325 7.22467 12.6238C5.78437 13.0783 4.46096 13.8444 3.3478 14.8682C2.23464 15.8921 1.35886 17.1486 0.782238 18.5492C0.205617 19.9499 -0.0577938 21.4604 0.0105914 22.9744C0.0789766 24.4883 0.477491 25.9688 1.17802 27.3113C1.87855 28.6538 2.86402 29.8256 4.06491 30.7441C5.26581 31.6626 6.65286 32.3054 8.12822 32.6271C9.60357 32.9488 11.1313 32.9417 12.6036 32.6061C14.0759 32.2705 15.4569 31.6147 16.6491 30.6849L17.2408 36.3364C17.2564 36.4848 17.3162 36.625 17.4125 36.7387C17.5087 36.8525 17.6369 36.9344 17.7803 36.9737C17.9237 37.0131 18.0756 37.0081 18.2161 36.9594C18.3566 36.9107 18.4792 36.8206 18.5678 36.7008L23.5354 30.0045C24.3093 30.2136 25.1174 30.2633 25.9109 30.1505C26.7044 30.0378 27.467 29.765 28.1527 29.3485C28.8384 28.932 29.433 28.3805 29.9007 27.7272C30.3683 27.0739 30.6994 26.3323 30.874 25.5471C31.1789 25.5796 31.4852 25.5967 31.7918 25.5986C33.8949 25.67 35.9403 24.901 37.4791 23.4603C39.018 22.0196 39.9246 20.0249 40 17.914C39.9442 16.0089 39.2019 14.1887 37.9109 12.7911C36.6198 11.3935 34.8677 10.5133 32.9794 10.3138C30.7366 7.07118 25.9279 5.00103 20.6425 5H20.4507Z" fill="#1D8ACE"/>
<path d="M60.944 15.888C61.1147 16.2933 61.1253 16.7413 60.976 17.232C60.848 17.7227 60.6027 18.0427 60.24 18.192C60.048 18.2773 59.792 18.352 59.472 18.416C59.152 18.4587 58.8 18.5013 58.416 18.544C58.0533 18.5867 57.6907 18.6187 57.328 18.64C56.9653 18.6613 56.656 18.672 56.4 18.672C56.4213 19.312 56.4427 19.9733 56.464 20.656C56.4853 21.3173 56.5067 21.968 56.528 22.608C56.5493 23.248 56.56 23.8667 56.56 24.464C56.56 25.04 56.5493 25.5627 56.528 26.032C56.528 26.352 56.528 26.7253 56.528 27.152C56.528 27.5573 56.496 27.952 56.432 28.336C56.3893 28.72 56.3147 29.0613 56.208 29.36C56.1013 29.6373 55.9413 29.8187 55.728 29.904C55.0667 30.1813 54.4587 30.256 53.904 30.128C53.3707 30.0213 52.9867 29.7973 52.752 29.456C52.5813 29.1787 52.4533 28.8587 52.368 28.496C52.2827 28.112 52.2187 27.728 52.176 27.344C52.1547 26.9387 52.144 26.5547 52.144 26.192C52.1653 25.808 52.176 25.4773 52.176 25.2C52.1973 24.304 52.208 23.2907 52.208 22.16C52.2293 21.008 52.24 19.856 52.24 18.704H51.76C51.504 18.704 51.1733 18.704 50.768 18.704C50.384 18.6827 49.9893 18.6507 49.584 18.608C49.2 18.544 48.8373 18.4693 48.496 18.384C48.1547 18.2773 47.9093 18.128 47.76 17.936C47.5253 17.6587 47.376 17.36 47.312 17.04C47.2693 16.72 47.2907 16.4213 47.376 16.144C47.4827 15.8453 47.6427 15.5893 47.856 15.376C48.0693 15.1413 48.3147 14.992 48.592 14.928C48.976 14.8213 49.52 14.768 50.224 14.768C50.928 14.7467 51.5893 14.7467 52.208 14.768C52.1867 14.5547 52.176 14.352 52.176 14.16C52.176 13.9467 52.1653 13.744 52.144 13.552C52.1227 13.296 52.112 12.976 52.112 12.592C52.112 12.1867 52.1333 11.792 52.176 11.408C52.24 11.0027 52.336 10.6293 52.464 10.288C52.592 9.92533 52.7733 9.648 53.008 9.456C53.328 9.2 53.648 9.06133 53.968 9.04C54.3093 8.99733 54.6187 9.04 54.896 9.168C55.1947 9.296 55.44 9.488 55.632 9.744C55.8453 9.97867 55.9947 10.2453 56.08 10.544C56.144 10.8 56.1973 11.1093 56.24 11.472C56.2827 11.8133 56.304 12.176 56.304 12.56C56.3253 12.944 56.336 13.328 56.336 13.712C56.336 14.096 56.336 14.448 56.336 14.768H56.656C56.976 14.768 57.3493 14.7573 57.776 14.736C58.2027 14.7147 58.6187 14.7253 59.024 14.768C59.4507 14.8107 59.8347 14.9173 60.176 15.088C60.5173 15.2373 60.7733 15.504 60.944 15.888ZM76.135 23.696C76.1563 24.1227 76.167 24.5707 76.167 25.04C76.167 25.488 76.1563 25.904 76.135 26.288C76.1137 26.864 76.0817 27.3973 76.039 27.888C75.9963 28.3573 75.911 28.7627 75.783 29.104C75.655 29.424 75.4523 29.6693 75.175 29.84C74.919 29.9893 74.5563 30.032 74.087 29.968C73.5963 29.904 73.2443 29.6693 73.031 29.264C72.8177 28.8587 72.6683 28.4 72.583 27.888C72.519 27.3547 72.4977 26.8213 72.519 26.288C72.5403 25.7547 72.5403 25.3387 72.519 25.04C72.4977 24.5707 72.4763 24.0373 72.455 23.44C72.455 22.8213 72.391 22.2453 72.263 21.712C72.1563 21.1573 71.9643 20.688 71.687 20.304C71.4097 19.92 70.9937 19.7173 70.439 19.696C69.735 19.6533 69.191 19.7067 68.807 19.856C68.4443 20.0053 68.1777 20.2293 68.007 20.528C67.8363 20.8053 67.7297 21.1467 67.687 21.552C67.6657 21.9573 67.623 22.3947 67.559 22.864L67.527 24.112V26.448C67.527 26.832 67.5163 27.2373 67.495 27.664C67.495 28.0693 67.431 28.4427 67.303 28.784C67.175 29.1253 66.9723 29.4133 66.695 29.648C66.439 29.8827 66.055 30 65.543 30C64.903 30 64.423 29.7973 64.103 29.392C63.8043 28.9653 63.655 28.4427 63.655 27.824V9.424C63.655 9.296 63.655 9.17867 63.655 9.072C63.6763 8.944 63.6977 8.816 63.719 8.688C63.7617 8.56 63.7937 8.44267 63.815 8.336C63.8363 8.208 63.8683 8.09067 63.911 7.984C63.975 7.77067 64.0817 7.61067 64.231 7.504C64.3377 7.39733 64.4443 7.312 64.551 7.248C64.6577 7.184 64.775 7.14133 64.903 7.12C65.0097 7.09867 65.127 7.088 65.255 7.088C65.383 7.06667 65.511 7.056 65.639 7.056C65.959 7.056 66.2683 7.152 66.567 7.344C66.695 7.42933 66.8123 7.52533 66.919 7.632C67.0257 7.71733 67.111 7.84533 67.175 8.016C67.3457 8.42133 67.431 8.80533 67.431 9.168C67.4523 9.27467 67.463 9.43467 67.463 9.648C67.4843 9.84 67.495 10.0427 67.495 10.256C67.495 10.4693 67.495 10.6827 67.495 10.896C67.5163 11.088 67.527 11.2373 67.527 11.344V11.504C67.5483 12.1867 67.559 12.88 67.559 13.584C67.559 14.288 67.559 15.0027 67.559 15.728V16.272C68.455 15.9733 69.3937 15.8347 70.375 15.856C71.3563 15.856 72.231 16.048 72.999 16.432C73.7883 16.8373 74.3857 17.296 74.791 17.808C75.2177 18.32 75.527 18.8853 75.719 19.504C75.911 20.1227 76.0177 20.784 76.039 21.488C76.0817 22.192 76.1137 22.928 76.135 23.696ZM82.8455 15.536C83.5495 15.1947 84.2855 14.9493 85.0535 14.8C85.8215 14.6507 86.5788 14.6187 87.3255 14.704C88.0935 14.7893 88.8295 14.992 89.5335 15.312C90.2588 15.632 90.9202 16.08 91.5175 16.656C92.0082 17.1467 92.4348 17.744 92.7975 18.448C93.1602 19.1307 93.4268 19.8027 93.5975 20.464C93.9602 21.6373 94.0135 22.8213 93.7575 24.016C93.5015 25.2107 93.0642 26.32 92.4455 27.344C92.1468 27.8133 91.7735 28.24 91.3255 28.624C90.8988 28.9867 90.4402 29.2853 89.9495 29.52C89.3095 29.8187 88.6162 30.0213 87.8695 30.128C87.1228 30.256 86.3975 30.288 85.6935 30.224C84.4135 30.16 83.2828 29.84 82.3015 29.264C81.3415 28.688 80.5628 27.952 79.9655 27.056C79.3895 26.16 79.0055 25.1467 78.8135 24.016C78.6428 22.864 78.7175 21.6907 79.0375 20.496C79.3788 19.216 79.8695 18.1813 80.5095 17.392C81.1708 16.5813 81.9495 15.9627 82.8455 15.536ZM83.8055 19.824C83.4855 20.1227 83.2402 20.496 83.0695 20.944C82.8988 21.392 82.7922 21.8613 82.7495 22.352C82.7068 22.8213 82.7388 23.3013 82.8455 23.792C82.9735 24.2613 83.1655 24.688 83.4215 25.072C83.6348 25.392 84.0188 25.6587 84.5735 25.872C85.1282 26.0853 85.7042 26.2133 86.3015 26.256C86.9842 26.2987 87.5815 26.1173 88.0935 25.712C88.6055 25.2853 88.9895 24.7627 89.2455 24.144C89.5228 23.5253 89.6508 22.8533 89.6295 22.128C89.6082 21.4027 89.4162 20.7413 89.0535 20.144C88.7975 19.7173 88.4348 19.408 87.9655 19.216C87.5175 19.0027 87.0375 18.896 86.5255 18.896C86.0348 18.8747 85.5442 18.9493 85.0535 19.12C84.5628 19.2693 84.1468 19.504 83.8055 19.824ZM109.62 22.384C109.577 23.088 109.534 23.8027 109.492 24.528C109.449 25.232 109.332 25.9147 109.14 26.576C108.969 27.2373 108.692 27.8347 108.308 28.368C107.945 28.9013 107.422 29.328 106.74 29.648C106.142 29.9467 105.502 30.1493 104.82 30.256C104.137 30.384 103.454 30.4373 102.772 30.416C102.089 30.3947 101.428 30.288 100.788 30.096C100.148 29.9253 99.5715 29.68 99.0595 29.36C98.5475 29.04 98.1315 28.624 97.8115 28.112C97.4915 27.6 97.2355 27.0453 97.0435 26.448C96.8728 25.8507 96.7555 25.232 96.6915 24.592C96.6275 23.952 96.5848 23.3547 96.5635 22.8C96.4782 21.328 96.4782 19.8773 96.5635 18.448C96.5635 18.1707 96.5635 17.8613 96.5635 17.52C96.5635 17.1573 96.5848 16.8053 96.6275 16.464C96.6915 16.1227 96.7875 15.8133 96.9155 15.536C97.0435 15.2373 97.2568 15.0133 97.5555 14.864C98.1955 14.5227 98.7822 14.5013 99.3155 14.8C99.8702 15.0987 100.201 15.7173 100.308 16.656C100.372 17.1467 100.393 17.6907 100.372 18.288C100.372 18.8853 100.393 19.4293 100.436 19.92C100.457 20.6453 100.478 21.4347 100.5 22.288C100.521 23.12 100.638 23.8667 100.852 24.528C101.086 25.1893 101.46 25.6907 101.972 26.032C102.505 26.352 103.294 26.3627 104.34 26.064C104.83 25.9147 105.15 25.5413 105.3 24.944C105.47 24.3467 105.556 23.4613 105.556 22.288C105.556 21.776 105.545 21.2107 105.524 20.592C105.502 19.9733 105.492 19.3653 105.492 18.768C105.492 18.1493 105.502 17.584 105.524 17.072C105.566 16.5387 105.63 16.1333 105.716 15.856C105.822 15.472 106.046 15.184 106.388 14.992C106.729 14.8 107.092 14.704 107.476 14.704C107.86 14.6827 108.222 14.7573 108.564 14.928C108.905 15.0987 109.14 15.376 109.268 15.76C109.396 16.1013 109.481 16.5387 109.524 17.072C109.588 17.584 109.63 18.1493 109.652 18.768C109.673 19.3653 109.673 19.984 109.652 20.624C109.652 21.2427 109.641 21.8293 109.62 22.384ZM125.529 23.952C125.529 24.6347 125.507 25.3707 125.465 26.16C125.443 26.9493 125.411 27.6853 125.369 28.368C125.369 29.008 125.337 29.648 125.273 30.288C125.23 30.8427 125.145 31.44 125.017 32.08C124.889 32.7413 124.707 33.3493 124.473 33.904C124.174 34.6293 123.769 35.248 123.257 35.76C122.745 36.2933 122.083 36.6773 121.273 36.912C120.59 37.0827 119.95 37.1893 119.353 37.232C118.755 37.296 118.115 37.2853 117.433 37.2C116.985 37.136 116.505 37.008 115.993 36.816C115.481 36.6453 115.001 36.4213 114.553 36.144C114.105 35.8667 113.71 35.536 113.369 35.152C113.027 34.7893 112.793 34.3733 112.665 33.904C112.515 33.328 112.505 32.8267 112.633 32.4C112.782 31.9733 113.006 31.664 113.305 31.472C113.603 31.28 113.955 31.248 114.361 31.376C114.766 31.504 115.15 31.8347 115.513 32.368C115.769 32.752 116.142 33.0613 116.633 33.296C117.123 33.5307 117.646 33.6693 118.201 33.712C118.755 33.7547 119.289 33.68 119.801 33.488C120.334 33.3173 120.75 33.008 121.049 32.56C121.262 32.24 121.411 31.7813 121.497 31.184C121.603 30.5867 121.667 30 121.689 29.424C120.601 29.872 119.481 30.0427 118.329 29.936C117.198 29.808 116.163 29.456 115.225 28.88C114.307 28.2827 113.561 27.4933 112.985 26.512C112.43 25.5093 112.195 24.3787 112.281 23.12C112.345 22.032 112.569 21.008 112.953 20.048C113.358 19.088 114.019 18.288 114.937 17.648C115.683 17.136 116.526 16.8053 117.465 16.656C118.403 16.4853 119.31 16.4 120.185 16.4C120.697 16.4 121.198 16.4 121.689 16.4C122.201 16.4 122.67 16.464 123.097 16.592C123.523 16.72 123.907 16.9333 124.249 17.232C124.59 17.5307 124.846 17.968 125.017 18.544C125.294 19.44 125.443 20.3253 125.465 21.2C125.507 22.0747 125.529 22.992 125.529 23.952ZM119.353 26.608C119.566 26.608 119.769 26.5867 119.961 26.544C120.174 26.5013 120.377 26.448 120.569 26.384C120.931 26.256 121.198 26.0853 121.369 25.872C121.561 25.6587 121.689 25.424 121.753 25.168C121.817 24.8907 121.838 24.592 121.817 24.272C121.817 23.952 121.817 23.6213 121.817 23.28C121.817 23.0027 121.806 22.6933 121.785 22.352C121.785 22.0107 121.763 21.6907 121.721 21.392C121.678 21.072 121.614 20.7947 121.529 20.56C121.443 20.3253 121.315 20.176 121.145 20.112C120.846 20.0267 120.505 19.9733 120.121 19.952C119.737 19.9093 119.353 19.9093 118.969 19.952C118.585 19.9733 118.211 20.048 117.849 20.176C117.507 20.2827 117.219 20.432 116.985 20.624C116.665 20.9013 116.419 21.2427 116.249 21.648C116.078 22.0533 115.971 22.48 115.929 22.928C115.907 23.376 115.939 23.8133 116.025 24.24C116.131 24.6667 116.313 25.0507 116.569 25.392C116.867 25.8187 117.273 26.128 117.785 26.32C118.297 26.512 118.819 26.608 119.353 26.608ZM140.604 23.696C140.625 24.1227 140.636 24.5707 140.636 25.04C140.636 25.488 140.625 25.904 140.604 26.288C140.582 26.864 140.55 27.3973 140.508 27.888C140.465 28.3573 140.38 28.7627 140.252 29.104C140.124 29.424 139.921 29.6693 139.644 29.84C139.388 29.9893 139.025 30.032 138.556 29.968C138.065 29.904 137.713 29.6693 137.5 29.264C137.286 28.8587 137.137 28.4 137.052 27.888C136.988 27.3547 136.966 26.8213 136.988 26.288C137.009 25.7547 137.009 25.3387 136.988 25.04C136.966 24.5707 136.945 24.0373 136.924 23.44C136.924 22.8213 136.86 22.2453 136.732 21.712C136.625 21.1573 136.433 20.688 136.156 20.304C135.878 19.92 135.462 19.7173 134.908 19.696C134.204 19.6533 133.66 19.7067 133.276 19.856C132.913 20.0053 132.646 20.2293 132.476 20.528C132.305 20.8053 132.198 21.1467 132.156 21.552C132.134 21.9573 132.092 22.3947 132.028 22.864L131.996 24.112V26.448C131.996 26.832 131.985 27.2373 131.964 27.664C131.964 28.0693 131.9 28.4427 131.772 28.784C131.644 29.1253 131.441 29.4133 131.164 29.648C130.908 29.8827 130.524 30 130.012 30C129.372 30 128.892 29.7973 128.572 29.392C128.273 28.9653 128.124 28.4427 128.124 27.824V9.424C128.124 9.296 128.124 9.17867 128.124 9.072C128.145 8.944 128.166 8.816 128.188 8.688C128.23 8.56 128.262 8.44267 128.284 8.336C128.305 8.208 128.337 8.09067 128.38 7.984C128.444 7.77067 128.55 7.61067 128.7 7.504C128.806 7.39733 128.913 7.312 129.02 7.248C129.126 7.184 129.244 7.14133 129.372 7.12C129.478 7.09867 129.596 7.088 129.724 7.088C129.852 7.06667 129.98 7.056 130.108 7.056C130.428 7.056 130.737 7.152 131.036 7.344C131.164 7.42933 131.281 7.52533 131.388 7.632C131.494 7.71733 131.58 7.84533 131.644 8.016C131.814 8.42133 131.9 8.80533 131.9 9.168C131.921 9.27467 131.932 9.43467 131.932 9.648C131.953 9.84 131.964 10.0427 131.964 10.256C131.964 10.4693 131.964 10.6827 131.964 10.896C131.985 11.088 131.996 11.2373 131.996 11.344V11.504C132.017 12.1867 132.028 12.88 132.028 13.584C132.028 14.288 132.028 15.0027 132.028 15.728V16.272C132.924 15.9733 133.862 15.8347 134.844 15.856C135.825 15.856 136.7 16.048 137.468 16.432C138.257 16.8373 138.854 17.296 139.26 17.808C139.686 18.32 139.996 18.8853 140.188 19.504C140.38 20.1227 140.486 20.784 140.508 21.488C140.55 22.192 140.582 22.928 140.604 23.696ZM155.257 15.888C155.427 16.2933 155.438 16.7413 155.289 17.232C155.161 17.7227 154.915 18.0427 154.553 18.192C154.361 18.2773 154.105 18.352 153.785 18.416C153.465 18.4587 153.113 18.5013 152.729 18.544C152.366 18.5867 152.003 18.6187 151.641 18.64C151.278 18.6613 150.969 18.672 150.713 18.672C150.734 19.312 150.755 19.9733 150.777 20.656C150.798 21.3173 150.819 21.968 150.841 22.608C150.862 23.248 150.873 23.8667 150.873 24.464C150.873 25.04 150.862 25.5627 150.841 26.032C150.841 26.352 150.841 26.7253 150.841 27.152C150.841 27.5573 150.809 27.952 150.745 28.336C150.702 28.72 150.627 29.0613 150.521 29.36C150.414 29.6373 150.254 29.8187 150.041 29.904C149.379 30.1813 148.771 30.256 148.217 30.128C147.683 30.0213 147.299 29.7973 147.065 29.456C146.894 29.1787 146.766 28.8587 146.681 28.496C146.595 28.112 146.531 27.728 146.489 27.344C146.467 26.9387 146.457 26.5547 146.457 26.192C146.478 25.808 146.489 25.4773 146.489 25.2C146.51 24.304 146.521 23.2907 146.521 22.16C146.542 21.008 146.553 19.856 146.553 18.704H146.073C145.817 18.704 145.486 18.704 145.081 18.704C144.697 18.6827 144.302 18.6507 143.897 18.608C143.513 18.544 143.15 18.4693 142.809 18.384C142.467 18.2773 142.222 18.128 142.073 17.936C141.838 17.6587 141.689 17.36 141.625 17.04C141.582 16.72 141.603 16.4213 141.689 16.144C141.795 15.8453 141.955 15.5893 142.169 15.376C142.382 15.1413 142.627 14.992 142.905 14.928C143.289 14.8213 143.833 14.768 144.536 14.768C145.241 14.7467 145.902 14.7467 146.521 14.768C146.499 14.5547 146.489 14.352 146.489 14.16C146.489 13.9467 146.478 13.744 146.457 13.552C146.435 13.296 146.425 12.976 146.425 12.592C146.425 12.1867 146.446 11.792 146.489 11.408C146.553 11.0027 146.649 10.6293 146.777 10.288C146.905 9.92533 147.086 9.648 147.321 9.456C147.641 9.2 147.961 9.06133 148.281 9.04C148.622 8.99733 148.931 9.04 149.209 9.168C149.507 9.296 149.753 9.488 149.945 9.744C150.158 9.97867 150.307 10.2453 150.393 10.544C150.457 10.8 150.51 11.1093 150.553 11.472C150.595 11.8133 150.617 12.176 150.617 12.56C150.638 12.944 150.649 13.328 150.649 13.712C150.649 14.096 150.649 14.448 150.649 14.768H150.969C151.289 14.768 151.662 14.7573 152.089 14.736C152.515 14.7147 152.931 14.7253 153.337 14.768C153.763 14.8107 154.147 14.9173 154.489 15.088C154.83 15.2373 155.086 15.504 155.257 15.888ZM164.272 24.368C163.866 24.112 163.408 23.9093 162.896 23.76C162.405 23.6107 161.893 23.472 161.36 23.344C160.848 23.216 160.346 23.0773 159.856 22.928C159.365 22.7573 158.917 22.5227 158.512 22.224C157.637 21.5627 157.125 20.752 156.976 19.792C156.848 18.8107 157.061 17.8293 157.616 16.848C157.914 16.336 158.309 15.92 158.8 15.6C159.29 15.2587 159.824 15.0027 160.4 14.832C160.997 14.64 161.605 14.5333 162.224 14.512C162.842 14.4907 163.429 14.5227 163.984 14.608C164.346 14.672 164.73 14.768 165.136 14.896C165.541 15.0027 165.914 15.152 166.256 15.344C166.618 15.536 166.938 15.7813 167.216 16.08C167.514 16.3573 167.728 16.7093 167.856 17.136C167.941 17.4133 167.952 17.68 167.888 17.936C167.845 18.192 167.738 18.4053 167.568 18.576C167.418 18.7467 167.216 18.8747 166.96 18.96C166.725 19.0453 166.469 19.0667 166.192 19.024C165.872 18.96 165.573 18.864 165.296 18.736C165.018 18.608 164.741 18.4693 164.464 18.32C164.186 18.1707 163.898 18.0427 163.6 17.936C163.322 17.8293 163.024 17.776 162.704 17.776C162.213 17.7547 161.808 17.84 161.488 18.032C161.168 18.224 160.944 18.4587 160.816 18.736C160.709 19.0133 160.72 19.312 160.848 19.632C160.997 19.952 161.296 20.2293 161.744 20.464C162.149 20.6773 162.597 20.848 163.088 20.976C163.578 21.104 164.058 21.232 164.528 21.36C165.018 21.488 165.488 21.6373 165.936 21.808C166.405 21.9787 166.821 22.2133 167.184 22.512C167.888 23.088 168.314 23.76 168.464 24.528C168.634 25.296 168.592 26.0533 168.336 26.8C168.08 27.5467 167.632 28.208 166.992 28.784C166.373 29.36 165.637 29.744 164.784 29.936C164.165 30.064 163.493 30.128 162.768 30.128C162.064 30.128 161.36 30.0533 160.656 29.904C159.973 29.7547 159.312 29.52 158.672 29.2C158.053 28.88 157.53 28.4747 157.104 27.984C156.805 27.6427 156.645 27.2587 156.624 26.832C156.624 26.384 156.709 26 156.88 25.68C157.072 25.3387 157.338 25.104 157.68 24.976C158.021 24.848 158.405 24.9227 158.832 25.2C159.173 25.4347 159.578 25.6693 160.048 25.904C160.517 26.1173 160.986 26.288 161.456 26.416C161.925 26.544 162.373 26.608 162.8 26.608C163.248 26.608 163.632 26.512 163.952 26.32C164.421 26.0213 164.666 25.68 164.688 25.296C164.709 24.8907 164.57 24.5813 164.272 24.368Z" fill="#1D8ACE"/>
</svg>
